<?xml version="1.0" encoding="utf-8"?>
<!-- Generator: Adobe Illustrator 26.0.3, SVG Export Plug-In . SVG Version: 6.00 Build 0)  -->
<svg version="1.1" id="Camada_1" xmlns="http://www.w3.org/2000/svg" xmlns:xlink="http://www.w3.org/1999/xlink" x="0px" y="0px"
	 viewBox="0 0 960 560" style="enable-background:new 0 0 960 560;" xml:space="preserve">
<style type="text/css">
	.st0{fill:none;stroke:#000000;stroke-width:11;stroke-miterlimit:10;}
</style>
<g>
	<path d="M570.2,74c40.1,0,72.8,32.7,72.8,72.8s-32.7,72.8-72.8,72.8c-40.1,0-72.8-32.7-72.8-72.8S530,74,570.2,74 M570.2,63
		c-46.3,0-83.8,37.5-83.8,83.8c0,46.3,37.5,83.8,83.8,83.8c46.3,0,83.8-37.5,83.8-83.8C654,100.5,616.5,63,570.2,63L570.2,63z"/>
</g>
<g>
	<path d="M570.1,74c1.6,0,3.3,0.1,4.9,0.2c19.4,1.3,37.1,10,50,24.7c12.8,14.6,19.2,33.4,17.9,52.8c-2.5,38.1-34.4,68-72.5,68
		c-1.6,0-3.3-0.1-4.9-0.2c-19.4-1.3-37.1-10-50-24.7c-12.8-14.6-19.2-33.4-17.9-52.8C500.1,103.9,531.9,74,570.1,74L570.1,74
		 M570.1,63c-43.8,0-80.6,34-83.5,78.3c-3.1,46.2,31.9,86.1,78.1,89.1c1.9,0.1,3.8,0.2,5.6,0.2c43.8,0,80.6-34,83.5-78.3
		c3.1-46.2-31.9-86.1-78.1-89.1C573.8,63.1,572,63,570.1,63L570.1,63z"/>
</g>
<g>
	<path d="M507.3,350.6L507.3,350.6c8.1,0,16.1,1.4,23.9,4c18.4,6.4,33.2,19.5,41.6,37c8.5,17.5,9.6,37.2,3.3,55.6
		c-10.2,29.3-37.8,49-68.8,49c-8.1,0-16.1-1.4-23.9-4c-37.9-13.2-58.1-54.7-44.9-92.6C448.7,370.3,476.3,350.6,507.3,350.6
		 M507.3,339.6c-34.7,0-67.1,21.7-79.2,56.3c-15.2,43.7,8,91.5,51.7,106.6c9.1,3.2,18.4,4.7,27.5,4.7c34.7,0,67.1-21.7,79.2-56.3
		c15.2-43.7-8-91.5-51.7-106.6C525.7,341.1,516.4,339.6,507.3,339.6L507.3,339.6z"/>
</g>
<g>
	<path d="M308.8,180.1L308.8,180.1c8.1,0,16.1,1.4,23.9,4c18.4,6.4,33.2,19.5,41.6,37c8.5,17.5,9.6,37.2,3.3,55.6
		c-10.2,29.3-37.8,49-68.8,49c-8.1,0-16.1-1.4-23.9-4c-18.4-6.4-33.2-19.5-41.6-37c-8.5-17.5-9.6-37.2-3.3-55.6
		C250.2,199.7,277.9,180.1,308.8,180.1 M308.8,169.1c-34.7,0-67.1,21.7-79.2,56.3c-15.2,43.7,8,91.5,51.7,106.6
		c9.1,3.2,18.4,4.7,27.5,4.7c34.7,0,67.1-21.7,79.2-56.3c15.2-43.7-8-91.5-51.7-106.6C327.2,170.6,317.9,169.1,308.8,169.1
		L308.8,169.1z"/>
</g>
<g>
	<line class="st0" x1="375.4" y1="207.8" x2="496.5" y2="171.5"/>
</g>
<line class="st0" x1="371" y1="301.9" x2="447.4" y2="372.4"/>
</svg>
